***********************************************************************************
                 Aeon Flux (Æon Flux) =Special Collector's Edition= [2005]
Aeon Flux is a mysterious assassin working for the Monicans, a group of rebels trying to overthrow the government. When she is a sent on a mission to kill the Chairman, a whole new mystery is found.

Director:
Karyn Kusama
Writers:
Phil Hay, Matt Manfredi
Stars:
Charlize Theron, Frances McDormand and Sophie Okonedo 
***********************************************************************************
Format                                   : Matroska
Format version                           : Version 2
File size                                : 1.00 GiB
Duration                                 : 1h 32mn
Overall bit rate                         : 1 548 Kbps

Video
Format                                   : AVC
Format/Info                              : Advanced Video Codec
Format profile                           : High@L3.0
Duration                                 : 1h 32mn
Bit rate                                 : 1 070 Kbps
Width                                    : 720 pixels
Height                                   : 368 pixels
Display aspect ratio                     : 2.35:1
Original display aspect ratio            : 2.35:1
Frame rate mode                          : Variable
Frame rate                               : 23.976 fps
Stream size                              : 711 MiB (69%)
Writing library                          : x264 core 120
Language                                 : English
Default                                  : Yes
Forced                                   : No

Audio
Format                                   : AC-3
Format/Info                              : Audio Coding 3
Codec ID                                 : A_AC3
Duration                                 : 1h 32mn
Bit rate                                 : 448 Kbps
Channel(s)                               : 6 channels
Sampling rate                            : 48.0 KHz
Bit depth                                : 16 bits
Compression mode                         : Lossy
Stream size                              : 298 MiB (29%)
Language                                 : English
Default                                  : Yes
Forced                                   : No

***********************************************************************************
NOTE FOR MY MOVIE TORRENTS: Each movie/episode has been hashed with an MD5 checker and I am listing the hash below. 
***********************************************************************************
Movie MD5:  B603CEF2A81BF489D2F62A79CA0892F8
Featurette: 55BEDE904EE0B51DAB96F062ED7DCE87
----------------------------------------------------------------------------------
MD5 Checker for Linux:  http://sinf.gr/en/hashcalc.html
MD5 Checker for Windows:  http://getmd5checker.com/ 
-----------------------------------------------------------------------------------
 This was personally encoded by me, Carjacker,from the Special Collector's Edition. I have included one of the 5 Featurettes from the disc- the one I thought most interesting. ;p
Leave your thoughts/opinions and ratings on the A/V of this film for others to see. Thanks! 
Pease SEED as you DL so others may also enjoy the movie! 
**Requests are welcome!